<svg id="visual" viewBox="0 0 900 600" width="900" height="600" xmlns="http://www.w3.org/2000/svg" xmlns:xlink="http://www.w3.org/1999/xlink" version="1.1"><rect x="0" y="0" width="900" height="600" fill="#001220"></rect><defs><linearGradient id="grad1_0" x1="33.3%" y1="0%" x2="100%" y2="100%"><stop offset="20%" stop-color="#fbae3c" stop-opacity="1"></stop><stop offset="80%" stop-color="#fbae3c" stop-opacity="1"></stop></linearGradient></defs><defs><linearGradient id="grad1_1" x1="33.3%" y1="0%" x2="100%" y2="100%"><stop offset="20%" stop-color="#fbae3c" stop-opacity="1"></stop><stop offset="80%" stop-color="#cc5867" stop-opacity="1"></stop></linearGradient></defs><defs><linearGradient id="grad1_2" x1="33.3%" y1="0%" x2="100%" y2="100%"><stop offset="20%" stop-color="#593762" stop-opacity="1"></stop><stop offset="80%" stop-color="#cc5867" stop-opacity="1"></stop></linearGradient></defs><defs><linearGradient id="grad1_3" x1="33.3%" y1="0%" x2="100%" y2="100%"><stop offset="20%" stop-color="#593762" stop-opacity="1"></stop><stop offset="80%" stop-color="#001220" stop-opacity="1"></stop></linearGradient></defs><defs><linearGradient id="grad2_0" x1="0%" y1="0%" x2="66.7%" y2="100%"><stop offset="20%" stop-color="#fbae3c" stop-opacity="1"></stop><stop offset="80%" stop-color="#fbae3c" stop-opacity="1"></stop></linearGradient></defs><defs><linearGradient id="grad2_1" x1="0%" y1="0%" x2="66.7%" y2="100%"><stop offset="20%" stop-color="#cc5867" stop-opacity="1"></stop><stop offset="80%" stop-color="#fbae3c" stop-opacity="1"></stop></linearGradient></defs><defs><linearGradient id="grad2_2" x1="0%" y1="0%" x2="66.7%" y2="100%"><stop offset="20%" stop-color="#cc5867" stop-opacity="1"></stop><stop offset="80%" stop-color="#593762" stop-opacity="1"></stop></linearGradient></defs><defs><linearGradient id="grad2_3" x1="0%" y1="0%" x2="66.7%" y2="100%"><stop offset="20%" stop-color="#001220" stop-opacity="1"></stop><stop offset="80%" stop-color="#593762" stop-opacity="1"></stop></linearGradient></defs><g transform="translate(900, 0)"><path d="M0 486.7C-69.3 485.1 -138.7 483.5 -186.3 449.7C-233.9 415.9 -259.8 349.8 -303.3 303.3C-346.9 256.9 -408.1 230.2 -441.6 182.9C-475.1 135.6 -480.9 67.8 -486.7 0L0 0Z" fill="#232745"></path><path d="M0 365.1C-52 363.9 -104 362.7 -139.7 337.3C-175.4 311.9 -194.8 262.3 -227.5 227.5C-260.2 192.7 -306.1 172.7 -331.2 137.2C-356.3 101.7 -360.7 50.9 -365.1 0L0 0Z" fill="#96446e"></path><path d="M0 243.4C-34.7 242.6 -69.3 241.8 -93.1 224.8C-116.9 207.9 -129.9 174.9 -151.7 151.7C-173.5 128.5 -204.1 115.1 -220.8 91.5C-237.6 67.8 -240.5 33.9 -243.4 0L0 0Z" fill="#f17c53"></path><path d="M0 121.7C-17.3 121.3 -34.7 120.9 -46.6 112.4C-58.5 104 -64.9 87.4 -75.8 75.8C-86.7 64.2 -102 57.6 -110.4 45.7C-118.8 33.9 -120.2 17 -121.7 0L0 0Z" fill="#fbae3c"></path></g><g transform="translate(0, 600)"><path d="M0 -486.7C60.1 -473.1 120.3 -459.5 181.8 -438.8C243.3 -418.2 306.2 -390.7 344.2 -344.2C382.2 -297.7 395.2 -232.3 414.8 -171.8C434.4 -111.3 460.6 -55.7 486.7 0L0 0Z" fill="#232745"></path><path d="M0 -365.1C45.1 -354.8 90.2 -344.6 136.3 -329.1C182.5 -313.7 229.7 -293 258.1 -258.1C286.6 -223.3 296.4 -174.3 311.1 -128.9C325.8 -83.5 345.4 -41.7 365.1 0L0 0Z" fill="#96446e"></path><path d="M0 -243.4C30.1 -236.6 60.1 -229.7 90.9 -219.4C121.6 -209.1 153.1 -195.3 172.1 -172.1C191.1 -148.9 197.6 -116.2 207.4 -85.9C217.2 -55.7 230.3 -27.8 243.4 0L0 0Z" fill="#f17c53"></path><path d="M0 -121.7C15 -118.3 30.1 -114.9 45.4 -109.7C60.8 -104.6 76.6 -97.7 86 -86C95.5 -74.4 98.8 -58.1 103.7 -43C108.6 -27.8 115.1 -13.9 121.7 0L0 0Z" fill="#fbae3c"></path></g></svg>