<svg width="900" height="600" viewBox="0 0 900 600" fill="none" xmlns="http://www.w3.org/2000/svg">
<g clip-path="url(#clip0_984_179)">
<rect width="900" height="600" fill="#C6C6C6"/>
<g filter="url(#filter0_f_984_179)">
<path d="M912.999 298C869.287 297.02 825.511 296.041 795.486 275.345C765.461 254.65 749.123 214.178 721.685 185.707C694.183 157.296 655.579 140.948 634.448 111.987C613.317 83.0261 609.659 41.513 606 0H912.999V298Z" fill="#232745"/>
<path d="M913 223.546C880.2 222.811 847.399 222.076 824.88 206.524C802.362 190.972 790.125 160.603 769.498 139.295C748.872 117.988 719.919 105.742 704.086 84.0058C688.254 62.2696 685.479 31.1654 682.703 0H913V223.546Z" fill="#96446E"/>
<path d="M912.998 149.031C891.11 148.541 869.285 148.051 854.273 137.642C839.26 127.294 831.06 107.089 817.309 92.8839C803.558 78.6789 784.256 70.4742 773.722 56.0243C763.125 41.5131 761.296 20.7565 759.467 0H912.998V149.031Z" fill="#F17C53"/>
<path d="M913 110C902.054 109.638 891.045 109.277 883.516 101.594C875.987 94.0016 871.938 78.9975 865.041 68.5127C858.145 58.0279 848.464 52.0625 843.15 41.3065C837.835 30.6409 836.949 15.3657 836 0H913V110Z" fill="#FBAE3C"/>
</g>
<g filter="url(#filter1_f_984_179)">
<path d="M206.966 111.248C153.287 71.6445 92.1151 57.3379 -41.3084 38L-42 479.748C-9.51403 480.735 6.11798 479.02 28.1945 471.157C61.079 448.573 81.4743 439.922 122.594 434.081C195.585 423.731 223.463 404.047 256.067 350.66C283.161 317.713 290.885 297.189 295.141 257.969C297.699 229.603 297.668 207.806 248.46 179.296C219.267 156.085 238.778 141.768 206.966 111.248Z" fill="#232745"/>
<path d="M157.991 172.957C119.08 120.276 40.3784 117.351 -42 101.824V416.447C12.7355 394.758 65.7527 399.016 132.393 373.884C133.003 373.654 133.6 373.338 134.134 372.965C175.638 344 191.628 324.955 204.297 285.9C216.741 252.336 216.298 233.937 189.401 209.544C177.491 198.744 167.543 185.889 157.991 172.957Z" fill="#96446E"/>
<path d="M51.0405 180.877C20.6059 172.597 13.1246 150.802 -42 158.146V361.612C-11.4905 341.309 28.3424 346.997 57.0961 336.63C74.9559 330.19 89.3678 316.39 104.241 304.591C116.485 294.878 123.02 285.375 121.924 272.669C120.29 253.737 114.492 234.751 106.893 217.334C101.796 205.652 91.588 196.874 72.3482 187.672C65.614 184.451 58.2435 182.836 51.0405 180.877Z" fill="#F17C53"/>
<path d="M68.8912 254.308C51.4108 207.673 -7.58548 224.74 -42 212V312C0.608452 287.962 72.1688 307.913 68.8912 254.308Z" fill="#FBAE3C"/>
</g>
</g>
<defs>
<filter id="filter0_f_984_179" x="601" y="-5" width="317" height="308" filterUnits="userSpaceOnUse" color-interpolation-filters="sRGB">
<feFlood flood-opacity="0" result="BackgroundImageFix"/>
<feBlend mode="normal" in="SourceGraphic" in2="BackgroundImageFix" result="shape"/>
<feGaussianBlur stdDeviation="2.5" result="effect1_foregroundBlur_984_179"/>
</filter>
<filter id="filter1_f_984_179" x="-47" y="33" width="348" height="452" filterUnits="userSpaceOnUse" color-interpolation-filters="sRGB">
<feFlood flood-opacity="0" result="BackgroundImageFix"/>
<feBlend mode="normal" in="SourceGraphic" in2="BackgroundImageFix" result="shape"/>
<feGaussianBlur stdDeviation="2.5" result="effect1_foregroundBlur_984_179"/>
</filter>
<clipPath id="clip0_984_179">
<rect width="900" height="600" fill="white"/>
</clipPath>
</defs>
</svg>
