<svg width="900" height="600" viewBox="0 0 900 600" fill="none" xmlns="http://www.w3.org/2000/svg">
<g clip-path="url(#clip0_984_179)">
<rect width="900" height="600" fill="#C6C6C6"/>
<path d="M475.809 614.315C476.489 581.113 477.167 547.863 513.651 525.253C550.134 502.643 622.533 490.626 673.068 470.056C723.493 449.439 751.944 420.268 803.517 404.496C855.09 388.724 929.675 386.35 1004.26 383.975L1011.86 617.224L475.809 614.315Z" fill="#232745"/>
<path d="M609.737 615.043C610.246 590.129 610.755 565.216 638.173 548.258C665.591 531.301 719.918 522.3 757.736 506.837C795.554 491.374 816.865 469.496 855.573 457.679C894.281 445.862 950.163 444.057 1006.16 442.252L1011.86 617.225L609.737 615.043Z" fill="#96446E"/>
<path d="M743.779 615.767C744.118 599.142 744.459 582.564 762.811 571.26C781.052 559.955 817.196 553.922 842.408 543.613C867.62 533.304 881.901 518.719 907.633 510.857C933.474 502.947 970.766 501.76 1008.06 500.573L1011.86 617.221L743.779 615.767Z" fill="#F17C53"/>
<path d="M813.986 616.146C814.365 607.834 814.743 599.473 828.376 593.827C841.848 588.181 868.737 585.251 887.427 580.114C906.117 574.976 916.608 567.68 935.824 563.747C954.878 559.813 982.334 559.289 1009.95 558.718L1011.86 617.22L813.986 616.146Z" fill="#FBAE3C"/>
<path d="M-370.722 404.7C-474.869 426.49 -515.293 459.903 -573.333 536.084L269.499 763C272.946 748.586 367.179 675.939 409.331 632.329C426.915 614.137 425.992 586.558 412.973 564.863C373.321 498.787 271.048 435.648 158.025 406.158C76.1922 380.422 106.989 405.165 7.69886 391.644C-64.1498 382.183 -119.491 376.134 -195.174 398.279C-256.06 409.663 -291.103 393.75 -370.722 404.7Z" fill="#232745"/>
<path d="M-209.811 433.673C-370.05 438.644 -380.575 494.358 -426.156 549.15L297.712 628.526C251.749 587.198 265.345 553.54 212.335 503.549C211.842 503.084 211.264 502.666 210.668 502.343C146.819 467.712 104.155 452.408 15.0508 434.222C-72.0544 415.254 -114.928 412.265 -187.366 430.533C-194.674 432.376 -202.277 433.439 -209.811 433.673Z" fill="#96446E"/>
<path d="M-249.801 515.588C-273.546 526.803 -307.416 531.528 -296.57 563.361L171.554 614.693C117.869 584.413 152.11 554.785 102.087 530.648C91.719 525.646 81.0665 521.038 71.0819 515.308C30.2564 491.882 -2.00833 480.777 -74.8815 484.446C-80.8118 484.745 -86.7966 484.617 -92.7034 484.011C-147.134 478.431 -178.391 479.258 -210.627 491.754C-224.808 497.252 -236.048 509.093 -249.801 515.588Z" fill="#F17C53"/>
<path d="M-21.6938 534.745C-130.244 534.432 -95.2151 577.391 -127 596.724L103.075 621.954C50.8296 587.973 101.875 546.122 -21.6938 534.745Z" fill="#FBAE3C"/>
</g>
<defs>
<clipPath id="clip0_984_179">
<rect width="900" height="600" fill="white"/>
</clipPath>
</defs>
</svg>
